<?xml version="1.0" standalone="no"?>
<!DOCTYPE svg PUBLIC "-//W3C//DTD SVG 20010904//EN"
 "http://www.w3.org/TR/2001/REC-SVG-20010904/DTD/svg10.dtd">
<svg version="1.0" xmlns="http://www.w3.org/2000/svg"
 width="700.000000pt" height="700.000000pt" viewBox="0 0 700.000000 700.000000"
 preserveAspectRatio="xMidYMid meet">
<metadata>
Created by potrace 1.14, written by Peter Selinger 2001-2017
</metadata>
<g transform="translate(0.000000,700.000000) scale(0.100000,-0.100000)"
fill="#000000" stroke="none">
<path d="M2319 6996 c-2 -2 -35 -6 -74 -10 -74 -6 -120 -13 -170 -22 -16 -3
-43 -8 -60 -10 -113 -19 -402 -110 -519 -163 -311 -143 -532 -296 -766 -531
-403 -404 -643 -901 -715 -1480 -15 -125 -13 -478 4 -595 26 -175 74 -391 100
-450 5 -11 24 -63 42 -115 48 -138 157 -349 259 -502 48 -73 99 -145 112 -160
13 -15 34 -42 48 -60 45 -59 274 -283 355 -348 193 -153 478 -315 690 -390 50
-18 99 -36 110 -41 20 -8 164 -47 200 -55 11 -2 34 -6 50 -10 52 -10 62 -14
62 -27 0 -28 27 -139 60 -247 44 -147 109 -307 179 -440 54 -102 199 -327 246
-382 13 -15 34 -42 48 -60 45 -59 274 -283 355 -348 337 -268 735 -444 1165
-517 131 -22 188 -26 370 -27 191 -1 325 6 385 20 11 2 34 6 50 8 112 15 289
60 429 110 132 47 145 53 291 126 600 302 1054 834 1258 1475 26 82 46 154 53
190 2 11 8 43 14 70 20 95 27 143 40 265 8 76 6 458 -3 495 -4 16 -16 104 -21
150 -1 9 -17 90 -21 105 -1 3 -7 32 -15 65 -23 100 -34 138 -82 270 -58 162
-166 375 -267 526 -49 74 -100 146 -113 161 -13 15 -43 52 -68 82 -65 80 -240
250 -343 331 -277 220 -598 379 -948 469 -69 18 -132 32 -140 31 -10 -2 -16 7
-17 24 -2 21 -23 110 -57 241 -2 8 -15 47 -28 85 -95 271 -230 518 -406 745
-82 106 -290 315 -396 400 -288 228 -658 408 -995 483 -125 28 -136 30 -255
47 -72 11 -487 24 -496 16z"/>
</g>
</svg>
